<mxfile host="app.diagrams.net" modified="2024-01-24T02:25:17.854Z" agent="Mozilla/5.0 (X11; Ubuntu; Linux x86_64; rv:121.0) Gecko/20100101 Firefox/121.0" version="23.0.0" etag="BsP8kYEpusR-MJ2JZr6y" type="github">
  <diagram name="Page-1" id="XSdtFabrxx90303EXynr">
    <mxGraphModel>
      <root>
        <mxCell id="0" />
        <mxCell id="1" parent="0" />
      </root>
    </mxGraphModel>
  </diagram>
</mxfile>
